<?xml version="1.0" encoding="iso-8859-1"?>
<!-- Generator: Adobe Illustrator 16.0.0, SVG Export Plug-In . SVG Version: 6.00 Build 0)  -->
<!DOCTYPE svg PUBLIC "-//W3C//DTD SVG 1.1//EN" "http://www.w3.org/Graphics/SVG/1.1/DTD/svg11.dtd">
<svg version="1.1" id="Capa_1" xmlns="http://www.w3.org/2000/svg" xmlns:xlink="http://www.w3.org/1999/xlink" x="0px" y="0px"
	 width="61.407px" height="61.407px" viewBox="0 0 61.407 61.407" style="enable-background:new 0 0 61.407 61.407;"
	 xml:space="preserve">
<g>
	<g>
		<path d="M3.937,37.606c0-5.247,25.012,3.323,26.767-5.274c1.756,8.598,26.767,0.027,26.767,5.274c0,5.437,3.868,5.437,3.868,0
			c0-5.438,1.987-11.294-15.478-11.294c-13.353,0-15.006-5.863-15.15-6.525c-0.002-0.045-0.003-0.063-0.003-0.063
			s-0.002,0.009-0.004,0.025c-0.003-0.016-0.004-0.025-0.004-0.025s-0.001,0.019-0.003,0.063c-0.144,0.662-1.795,6.525-15.151,6.525
			c-17.463,0-15.477,5.856-15.477,11.294C0.067,43.043,3.937,43.043,3.937,37.606z"/>
	</g>
</g>
<g>
</g>
<g>
</g>
<g>
</g>
<g>
</g>
<g>
</g>
<g>
</g>
<g>
</g>
<g>
</g>
<g>
</g>
<g>
</g>
<g>
</g>
<g>
</g>
<g>
</g>
<g>
</g>
<g>
</g>
</svg>
